<svg width="122" height="196" viewBox="0 0 122 196" fill="none" xmlns="http://www.w3.org/2000/svg">
<g opacity="0.7">
<path d="M0.525879 19V0.54002H6.92188C8.39522 0.54002 9.68655 0.782684 10.7959 1.26802C11.9225 1.75335 12.8585 2.41202 13.6039 3.24402C14.3492 4.07602 14.9039 5.05535 15.2679 6.18202C15.6492 7.29135 15.8399 8.47869 15.8399 9.74402C15.8399 11.148 15.6319 12.422 15.2159 13.566C14.7999 14.6927 14.2019 15.6633 13.4219 16.478C12.6419 17.2753 11.6972 17.8994 10.5879 18.35C9.49588 18.7834 8.27388 19 6.92188 19H0.525879ZM13.4739 9.74402C13.4739 8.70402 13.3265 7.75068 13.0319 6.88402C12.7545 6.00002 12.3299 5.24602 11.7579 4.62202C11.2032 3.99802 10.5185 3.51269 9.70388 3.16602C8.88921 2.80202 7.96188 2.62002 6.92188 2.62002H2.86588V16.92H6.92188C7.97922 16.92 8.91521 16.738 9.72988 16.374C10.5619 16.01 11.2465 15.5074 11.7839 14.866C12.3385 14.2247 12.7545 13.4707 13.0319 12.604C13.3265 11.72 13.4739 10.7667 13.4739 9.74402Z" fill="#435255"/>
<path d="M21.3732 19V5.42802H23.6612V19H21.3732ZM21.3732 2.88002V0.0200195H23.6612V2.88002H21.3732Z" fill="#435255"/>
<path d="M34.7234 19.26C33.6314 19.26 32.5567 19.0954 31.4994 18.766C30.4421 18.4194 29.5321 17.9253 28.7694 17.284L29.7574 15.75C30.5547 16.3567 31.3521 16.816 32.1494 17.128C32.9467 17.4227 33.7874 17.57 34.6714 17.57C35.6594 17.57 36.4394 17.3794 37.0114 16.998C37.6007 16.5994 37.8954 16.0447 37.8954 15.334C37.8954 15.0047 37.8174 14.7274 37.6614 14.502C37.5054 14.2594 37.2714 14.0514 36.9594 13.878C36.6474 13.7047 36.2487 13.5487 35.7634 13.41C35.2781 13.2714 34.7147 13.124 34.0734 12.968C33.2587 12.76 32.5567 12.5607 31.9674 12.37C31.3781 12.1794 30.8927 11.954 30.5114 11.694C30.1301 11.434 29.8527 11.122 29.6794 10.758C29.5061 10.394 29.4194 9.94335 29.4194 9.40602C29.4194 8.73002 29.5494 8.13202 29.8094 7.61202C30.0867 7.07469 30.4594 6.63269 30.9274 6.28602C31.3954 5.92202 31.9414 5.65335 32.5654 5.48002C33.2067 5.28935 33.8914 5.19402 34.6194 5.19402C35.6421 5.19402 36.5954 5.35869 37.4794 5.68802C38.3634 6.01735 39.1087 6.45068 39.7154 6.98802L38.6754 8.36602C38.1034 7.86335 37.4621 7.49069 36.7514 7.24802C36.0407 6.98802 35.3127 6.85802 34.5674 6.85802C33.7354 6.85802 33.0247 7.04002 32.4354 7.40402C31.8634 7.75068 31.5774 8.31402 31.5774 9.09402C31.5774 9.40602 31.6294 9.66602 31.7334 9.87402C31.8547 10.082 32.0454 10.264 32.3054 10.42C32.5654 10.576 32.8947 10.7147 33.2934 10.836C33.7094 10.9574 34.2034 11.0874 34.7754 11.226C35.6767 11.434 36.4567 11.6507 37.1154 11.876C37.7914 12.084 38.3461 12.3354 38.7794 12.63C39.2301 12.9247 39.5594 13.2714 39.7674 13.67C39.9927 14.0687 40.1054 14.554 40.1054 15.126C40.1054 16.3914 39.6201 17.3967 38.6494 18.142C37.6787 18.8874 36.3701 19.26 34.7234 19.26Z" fill="#435255"/>
<path d="M44.5031 12.188C44.5031 11.2347 44.6677 10.3334 44.997 9.48402C45.3264 8.63469 45.7944 7.89802 46.401 7.27402C47.0077 6.63268 47.7271 6.13002 48.5591 5.76602C49.4084 5.38468 50.3531 5.19402 51.3931 5.19402C52.7451 5.19402 53.9064 5.49735 54.877 6.10402C55.865 6.69335 56.6104 7.49068 57.1131 8.49602L54.877 9.19802C54.5304 8.55668 54.0451 8.06269 53.4211 7.71602C52.7971 7.35202 52.1037 7.17002 51.341 7.17002C50.717 7.17002 50.1277 7.30002 49.573 7.56002C49.0184 7.80268 48.5417 8.14935 48.1431 8.60002C47.7444 9.05068 47.4237 9.57935 47.181 10.186C46.9557 10.7927 46.843 11.46 46.843 12.188C46.843 12.8987 46.9644 13.566 47.207 14.19C47.4497 14.814 47.7704 15.36 48.1691 15.828C48.5851 16.2787 49.0617 16.634 49.599 16.894C50.1537 17.154 50.743 17.284 51.3671 17.284C51.7657 17.284 52.1557 17.232 52.537 17.128C52.9357 17.0067 53.291 16.8507 53.603 16.66C53.9324 16.4694 54.2184 16.2527 54.461 16.01C54.7037 15.75 54.877 15.4727 54.981 15.178L57.217 15.854C57.009 16.3567 56.7144 16.816 56.3331 17.232C55.9691 17.648 55.5357 18.0033 55.0331 18.298C54.5304 18.5927 53.967 18.8267 53.343 19C52.7364 19.1734 52.0951 19.26 51.4191 19.26C50.3964 19.26 49.4604 19.0694 48.6111 18.688C47.7617 18.3067 47.0337 17.7954 46.427 17.154C45.8204 16.5127 45.3437 15.7674 44.997 14.918C44.6677 14.0514 44.5031 13.1414 44.5031 12.188Z" fill="#435255"/>
<path d="M68.2106 19.26C67.1879 19.26 66.2519 19.0694 65.4026 18.688C64.5706 18.3067 63.8512 17.7954 63.2446 17.154C62.6552 16.5127 62.1959 15.7674 61.8666 14.918C61.5372 14.0687 61.3726 13.176 61.3726 12.24C61.3726 11.2867 61.5372 10.3854 61.8666 9.53602C62.2132 8.68669 62.6813 7.94135 63.2706 7.30002C63.8773 6.65868 64.5966 6.14735 65.4286 5.76602C66.2779 5.38468 67.2053 5.19402 68.2106 5.19402C69.2159 5.19402 70.1433 5.38468 70.9926 5.76602C71.8419 6.14735 72.5613 6.65868 73.1506 7.30002C73.7573 7.94135 74.2252 8.68669 74.5546 9.53602C74.9012 10.3854 75.0746 11.2867 75.0746 12.24C75.0746 13.176 74.9099 14.0687 74.5806 14.918C74.2512 15.7674 73.7833 16.5127 73.1766 17.154C72.5699 17.7954 71.8419 18.3067 70.9926 18.688C70.1606 19.0694 69.2333 19.26 68.2106 19.26ZM63.7126 12.266C63.7126 12.9767 63.8252 13.6354 64.0506 14.242C64.2932 14.8487 64.6139 15.3774 65.0126 15.828C65.4286 16.2787 65.9052 16.634 66.4426 16.894C66.9972 17.154 67.5866 17.284 68.2106 17.284C68.8346 17.284 69.4153 17.154 69.9526 16.894C70.5073 16.634 70.9926 16.2787 71.4086 15.828C71.8246 15.36 72.1453 14.8227 72.3706 14.216C72.6133 13.592 72.7346 12.9247 72.7346 12.214C72.7346 11.5207 72.6133 10.8707 72.3706 10.264C72.1453 9.64002 71.8246 9.10269 71.4086 8.65202C70.9926 8.18402 70.5073 7.82002 69.9526 7.56002C69.4153 7.30002 68.8346 7.17002 68.2106 7.17002C67.5866 7.17002 66.9972 7.30868 66.4426 7.58602C65.9052 7.84602 65.4286 8.21002 65.0126 8.67802C64.6139 9.12869 64.2932 9.66602 64.0506 10.29C63.8252 10.8967 63.7126 11.5554 63.7126 12.266Z" fill="#435255"/>
<path d="M83.916 19L78.56 5.42802H80.926L85.216 16.998L89.532 5.42802H91.716L86.36 19H83.916Z" fill="#435255"/>
<path d="M102.129 19.26C101.107 19.26 100.171 19.078 99.3212 18.714C98.4719 18.3327 97.7439 17.8214 97.1372 17.18C96.5305 16.5387 96.0539 15.7934 95.7072 14.944C95.3779 14.0774 95.2132 13.1674 95.2132 12.214C95.2132 11.2607 95.3779 10.3594 95.7072 9.51002C96.0539 8.66068 96.5305 7.91535 97.1372 7.27402C97.7612 6.63268 98.4979 6.13002 99.3472 5.76602C100.197 5.38468 101.133 5.19402 102.155 5.19402C103.178 5.19402 104.105 5.38468 104.937 5.76602C105.787 6.14735 106.506 6.65868 107.095 7.30002C107.685 7.92402 108.135 8.66068 108.447 9.51002C108.777 10.342 108.941 11.2087 108.941 12.11C108.941 12.3007 108.933 12.474 108.915 12.63C108.915 12.786 108.907 12.9074 108.889 12.994H97.6312C97.6832 13.67 97.8392 14.2854 98.0992 14.84C98.3592 15.3947 98.6972 15.8713 99.1132 16.27C99.5292 16.6687 99.9972 16.9807 100.517 17.206C101.055 17.4314 101.618 17.544 102.207 17.544C102.623 17.544 103.031 17.492 103.429 17.388C103.828 17.2667 104.201 17.1107 104.547 16.92C104.894 16.7294 105.197 16.4954 105.457 16.218C105.735 15.9407 105.943 15.6287 106.081 15.282L108.057 15.828C107.832 16.3307 107.52 16.79 107.121 17.206C106.74 17.622 106.289 17.986 105.769 18.298C105.267 18.5927 104.703 18.8267 104.079 19C103.455 19.1734 102.805 19.26 102.129 19.26ZM106.783 11.304C106.731 10.6627 106.567 10.0734 106.289 9.53602C106.029 8.98135 105.691 8.51335 105.275 8.13202C104.877 7.75069 104.409 7.45602 103.871 7.24802C103.334 7.02269 102.762 6.91002 102.155 6.91002C101.549 6.91002 100.977 7.02269 100.439 7.24802C99.9019 7.45602 99.4252 7.75935 99.0092 8.15802C98.6105 8.53935 98.2812 8.99869 98.0212 9.53602C97.7785 10.0734 97.6312 10.6627 97.5792 11.304H106.783Z" fill="#435255"/>
<path d="M121.261 7.43002C120.117 7.46469 119.103 7.75935 118.219 8.31402C117.352 8.86869 116.737 9.64002 116.373 10.628V19H114.085V5.42802H116.217V8.57402C116.685 7.63802 117.3 6.88402 118.063 6.31202C118.825 5.72269 119.64 5.39335 120.507 5.32402C120.68 5.32402 120.827 5.32402 120.949 5.32402C121.07 5.32402 121.174 5.33268 121.261 5.35002V7.43002Z" fill="#435255"/>
</g>
<path d="M58 191.935V169.022C58 167.905 58.9052 167 60.0217 167C61.1383 167 62.0435 167.905 62.0435 169.022V191.935C62.0435 193.051 61.1383 193.957 60.0217 193.957C58.9052 193.957 58 193.051 58 191.935Z" fill="#797979"/>
<path d="M61.7623 193.854L74.4017 182.046C75.3824 181.129 75.4087 179.583 74.4597 178.634C73.5505 177.724 72.0826 177.705 71.1493 178.589L58.5953 190.488C57.7016 191.335 57.6291 192.734 58.4305 193.669C59.2862 194.667 60.8015 194.751 61.7623 193.854Z" fill="#797979"/>
<path d="M45.7732 182.046L58.2374 193.833C59.1966 194.74 60.7196 194.66 61.5787 193.658C62.3763 192.728 62.3085 191.336 61.4243 190.488L49.047 178.61C48.115 177.715 46.639 177.731 45.7256 178.644C44.7805 179.589 44.802 181.128 45.7732 182.046Z" fill="#797979"/>
<path opacity="0.9" d="M62 161V151C62 149.895 61.1046 149 60 149C58.8954 149 58 149.895 58 151V161C58 162.105 58.8954 163 60 163C61.1046 163 62 162.105 62 161Z" fill="#797979"/>
<path opacity="0.4" d="M62.0435 48.413V43.0217C62.0435 41.9052 61.1383 41 60.0217 41C58.9052 41 58 41.9052 58 43.0217V48.413C58 49.5296 58.9052 50.4348 60.0217 50.4348C61.1383 50.4348 62.0435 49.5296 62.0435 48.413Z" fill="#797979"/>
<path opacity="0.45" d="M62.0435 61.8913V56.5C62.0435 55.3834 61.1383 54.4783 60.0217 54.4783C58.9052 54.4783 58 55.3834 58 56.5V61.8913C58 63.0079 58.9052 63.9131 60.0217 63.9131C61.1383 63.9131 62.0435 63.0079 62.0435 61.8913Z" fill="#797979"/>
<path opacity="0.5" d="M62.0435 75.3696V69.9783C62.0435 68.8617 61.1383 67.9565 60.0217 67.9565C58.9052 67.9565 58 68.8617 58 69.9783V75.3696C58 76.4862 58.9052 77.3913 60.0217 77.3913C61.1383 77.3913 62.0435 76.4862 62.0435 75.3696Z" fill="#797979"/>
<path opacity="0.55" d="M58 88.8479V83.4566C58 82.34 58.9052 81.4348 60.0217 81.4348C61.1383 81.4348 62.0435 82.34 62.0435 83.4566V88.8479C62.0435 89.9644 61.1383 90.8696 60.0217 90.8696C58.9052 90.8696 58 89.9644 58 88.8479Z" fill="#797979"/>
<path opacity="0.6" d="M62.0435 102.413V97.0217C62.0435 95.9052 61.1383 95 60.0217 95C58.9052 95 58 95.9052 58 97.0217V102.413C58 103.53 58.9052 104.435 60.0217 104.435C61.1383 104.435 62.0435 103.53 62.0435 102.413Z" fill="#797979"/>
<path opacity="0.75" d="M62.0435 115.891V110.5C62.0435 109.383 61.1383 108.478 60.0217 108.478C58.9052 108.478 58 109.383 58 110.5V115.891C58 117.008 58.9052 117.913 60.0217 117.913C61.1383 117.913 62.0435 117.008 62.0435 115.891Z" fill="#797979"/>
<path opacity="0.8" d="M62.0435 129.37V123.978C62.0435 122.862 61.1383 121.957 60.0217 121.957C58.9052 121.957 58 122.862 58 123.978V129.37C58 130.486 58.9052 131.391 60.0217 131.391C61.1383 131.391 62.0435 130.486 62.0435 129.37Z" fill="#797979"/>
<path opacity="0.85" d="M58 142.848V137.457C58 136.34 58.9052 135.435 60.0217 135.435C61.1383 135.435 62.0435 136.34 62.0435 137.457V142.848C62.0435 143.964 61.1383 144.87 60.0217 144.87C58.9052 144.87 58 143.964 58 142.848Z" fill="#797979"/>
</svg>
