<svg width="66" height="66" viewBox="0 0 66 66" fill="none" xmlns="http://www.w3.org/2000/svg">
<path d="M18.223 15.0199C17.2712 14.0673 15.7269 14.0673 14.7751 15.0199C11.241 18.554 9.50395 23.4772 10.0087 28.528C10.1347 29.7862 11.1947 30.7241 12.4326 30.7241C12.5139 30.7241 12.5959 30.72 12.6772 30.7119C14.0176 30.5778 14.9954 29.3821 14.8613 28.0426C14.502 24.4532 15.7278 20.9631 18.223 18.4677C19.1757 17.516 19.1757 15.9716 18.223 15.0199Z" fill="#F7F5F0"/>
<path d="M27.8793 0C12.5066 0 0 12.5066 0 27.8793C0 43.252 12.5066 55.7587 27.8793 55.7587C43.252 55.7587 55.7587 43.252 55.7587 27.8793C55.7587 12.5066 43.2519 0 27.8793 0ZM27.8793 50.8817C15.1955 50.8817 4.87691 40.5632 4.87691 27.8793C4.87691 15.1955 15.1955 4.87691 27.8793 4.87691C40.5624 4.87691 50.8817 15.1955 50.8817 27.8793C50.8817 40.5632 40.5632 50.8817 27.8793 50.8817Z" fill="#F7F5F0"/>
<path d="M65.2851 61.8376L47.5658 44.1184C46.6131 43.1658 45.0704 43.1658 44.1178 44.1184C43.1652 45.0702 43.1652 46.6145 44.1178 47.5664L61.8371 65.2856C62.3134 65.7619 62.9368 66 63.5611 66C64.1854 66 64.8088 65.7619 65.2851 65.2856C66.2376 64.3337 66.2376 62.7894 65.2851 61.8376Z" fill="#F7F5F0"/>
</svg>
