<svg width="30" height="30" viewBox="0 0 30 30" fill="none" xmlns="http://www.w3.org/2000/svg">
<path d="M30 0H0V30H30V0Z" fill="#DC472E"/>
<path d="M17.3296 19.2042C17.329 19.0923 17.2961 18.9758 17.2546 18.8711C17.1993 18.7335 17.0808 18.6651 16.932 18.6506C16.7576 18.6335 16.618 18.7039 16.4916 18.8158C16.441 18.8599 16.4179 18.9258 16.4179 18.9258L16.4205 22.4785V22.5661C16.4205 22.5661 16.4508 22.6069 16.4554 22.6121C16.5581 22.7234 16.6779 22.8116 16.8313 22.8432C17.0841 22.8952 17.2625 22.7899 17.3119 22.5555C17.3244 22.4969 17.3316 22.4364 17.3316 22.3765C17.3329 21.3186 17.3349 20.2614 17.3296 19.2042ZM17.3296 19.2042C17.329 19.0923 17.2961 18.9758 17.2546 18.8711C17.1993 18.7335 17.0808 18.6651 16.932 18.6506C16.7576 18.6335 16.618 18.7039 16.4916 18.8158C16.441 18.8599 16.4179 18.9258 16.4179 18.9258L16.4205 22.4785V22.5661C16.4205 22.5661 16.4508 22.6069 16.4554 22.6121C16.5581 22.7234 16.6779 22.8116 16.8313 22.8432C17.0841 22.8952 17.2625 22.7899 17.3119 22.5555C17.3244 22.4969 17.3316 22.4364 17.3316 22.3765C17.3329 21.3186 17.3349 20.2614 17.3296 19.2042ZM21.3076 13.8464C17.1032 13.7563 12.8968 13.7563 8.69164 13.8464C7.23288 13.8774 6.06641 15.0702 6.06641 16.5296V23.0966C6.06641 24.5567 7.23288 25.7495 8.69164 25.7805C12.8968 25.8706 17.1032 25.8706 21.3076 25.7805C22.7671 25.7495 23.9335 24.5567 23.9335 23.0966V16.5296C23.9335 15.0703 22.7671 13.8774 21.3076 13.8464ZM9.92658 23.6951H8.71402V16.8404H7.45868V15.6937H11.1846V16.8378H9.92658V23.6951ZM14.266 20.8499V23.6957H13.1923V23.0453C13.1535 23.0868 13.1318 23.1091 13.1114 23.1322C12.8803 23.3929 12.6183 23.6101 12.2839 23.7253C12.1206 23.7813 11.9528 23.8003 11.781 23.7707C11.5466 23.7319 11.3893 23.5969 11.2945 23.3837C11.2063 23.1868 11.1839 22.9762 11.1832 22.7642C11.1806 21.9809 11.1819 17.835 11.1819 17.7948H12.253C12.2549 17.831 12.2589 20.8071 12.2595 22.2586C12.2595 22.3376 12.2602 22.4186 12.276 22.4956C12.3155 22.6905 12.4649 22.7741 12.6525 22.7056C12.8684 22.6266 13.033 22.4779 13.1713 22.2995C13.1917 22.2738 13.1917 22.2277 13.1917 22.1908V17.7882L14.266 17.7856C14.266 17.7857 14.266 19.8638 14.266 20.8499ZM18.3506 23.1269C18.2071 23.5588 17.8911 23.7786 17.4369 23.774C17.0676 23.7707 16.7681 23.6239 16.5213 23.356C16.4936 23.3264 16.4173 23.2454 16.4173 23.2454V23.6944H15.3416V15.6929H16.4173C16.4173 16.5447 16.4173 18.3267 16.4173 18.3267C16.4173 18.3267 16.4778 18.2056 16.5331 18.1431C16.6997 17.9568 16.9024 17.8126 17.1526 17.7494C17.5653 17.6461 18.0412 17.7738 18.2677 18.2563C18.4013 18.5413 18.4388 18.8455 18.4388 19.1548C18.4408 20.2733 18.4408 21.3917 18.4395 22.5101C18.4388 22.7194 18.4171 22.9262 18.3506 23.1269ZM22.3234 22.9019C22.1371 23.4476 21.752 23.7504 21.1872 23.8333C20.837 23.8847 20.4901 23.8774 20.1616 23.7287C19.712 23.5259 19.4572 23.1592 19.3479 22.6925C19.2972 22.4753 19.2722 22.2475 19.2696 22.0244C19.261 21.1482 19.265 20.2714 19.267 19.3952C19.2676 18.937 19.3769 18.5144 19.6909 18.1635C20.049 17.7626 20.5072 17.6132 21.0305 17.6468C21.1878 17.6567 21.3485 17.6823 21.4979 17.7317C22.0067 17.8989 22.2786 18.2801 22.3852 18.7856C22.4261 18.9805 22.4412 19.1826 22.4445 19.382C22.4531 19.8494 22.4412 20.8796 22.4412 20.8796H20.3814V22.3561C20.3814 22.6214 20.596 22.836 20.8613 22.836C21.126 22.836 21.3406 22.6214 21.3406 22.3561V21.5971H22.4471C22.4471 21.5971 22.4636 22.4931 22.3234 22.9019ZM21.3406 19.1352C21.3406 18.8705 21.126 18.6553 20.8613 18.6553C20.596 18.6553 20.3814 18.8705 20.3814 19.1352V19.9639H21.3406V19.1352ZM17.2546 18.8712C17.1993 18.7336 17.0808 18.6651 16.932 18.6507C16.7576 18.6335 16.618 18.704 16.4916 18.8159C16.441 18.86 16.4179 18.9258 16.4179 18.9258L16.4205 22.4786V22.5661C16.4205 22.5661 16.4508 22.6069 16.4554 22.6122C16.5581 22.7235 16.6779 22.8117 16.8313 22.8433C17.0841 22.8953 17.2625 22.7899 17.3119 22.5556C17.3244 22.497 17.3316 22.4364 17.3316 22.3765C17.3329 21.3187 17.3349 20.2615 17.3296 19.2043C17.329 19.0923 17.2961 18.9758 17.2546 18.8712Z" fill="white"/>
<path d="M20.0043 6.25293L20.004 12.1935H18.9032L18.9045 11.5553C18.7828 11.6752 18.6789 11.7872 18.5648 11.8878C18.3624 12.066 18.1332 12.1989 17.8651 12.2514C17.4535 12.3319 17.1029 12.2018 16.9716 11.7755C16.9279 11.6335 16.9015 11.4804 16.9004 11.3322V6.25293H17.9929V10.7833C17.9929 10.8433 17.9977 10.904 18.0082 10.9629C18.0414 11.1496 18.1794 11.2374 18.3591 11.1751C18.5783 11.0993 18.7455 10.9475 18.8874 10.7688C18.9075 10.7432 18.9039 10.6955 18.9039 10.6581V6.25293H20.0043Z" fill="white"/>
<path d="M10.8995 7.28541C10.6605 6.27818 10.1599 4.15186 10.1599 4.15186H8.90723C8.90723 4.15186 9.86964 7.34367 10.3 8.76714C10.3155 8.81862 10.3226 8.87451 10.3226 8.92842L10.3221 12.1925H11.4772L11.4768 8.92842C11.4768 8.87451 11.4839 8.81862 11.4994 8.76714C11.9297 7.34367 12.8921 4.15186 12.8921 4.15186H11.6395C11.6395 4.15186 11.1388 6.27818 10.8999 7.28541H10.8995Z" fill="white"/>
<path d="M14.4004 6.10449C13.5299 6.10449 12.8242 6.81017 12.8242 7.68069V10.7653C12.8242 11.6358 13.5299 12.3415 14.4004 12.3415C15.2709 12.3415 15.9766 11.6358 15.9766 10.7653V7.68069C15.9767 6.81017 15.2709 6.10449 14.4004 6.10449ZM14.8553 10.8276C14.8553 11.0784 14.6512 11.2824 14.4005 11.2824C14.1497 11.2824 13.9457 11.0784 13.9457 10.8276V7.61835C13.9457 7.36754 14.1497 7.16354 14.4005 7.16354C14.6512 7.16354 14.8553 7.36761 14.8553 7.61835V10.8276Z" fill="white"/>
</svg>
