<svg width="864" height="82" viewBox="0 0 864 82" fill="none" xmlns="http://www.w3.org/2000/svg">
<path d="M61.1562 6.63965H34.3545V79.2031H27.748V6.63965H1V1H61.1562V6.63965Z" fill="#FFB6B6"/>
<path d="M87.6014 79.2031H81.1561V16.6299H87.6014V79.2031Z" fill="#FFB6B6"/>
<path d="M163.568 79.2031H157.176L119.471 26.7275V79.2031H113.08V16.6299H119.471L157.176 69.1055V16.6299H163.568V79.2031Z" fill="#FFB6B6"/>
<path d="M224.442 62.499H194.095L187.435 79.2031H180.775L206.234 16.6299H212.411L237.655 79.2031H231.048L224.442 62.499ZM196.244 57.0205H222.24L209.295 24.3105L196.244 57.0205Z" fill="#FFB6B6"/>
<path d="M297.688 47.3525V79.2031H291.082V1H317.723C325.851 1 332.26 3.07682 336.951 7.23047C341.678 11.3841 344.041 17.0954 344.041 24.3643C344.041 31.7048 341.767 37.3802 337.22 41.3906C332.708 45.3652 326.155 47.3525 317.562 47.3525H297.688ZM297.688 41.7666H317.723C324.132 41.7666 329.02 40.2448 332.386 37.2012C335.752 34.1576 337.435 29.9144 337.435 24.4717C337.435 19.0648 335.752 14.7679 332.386 11.5811C329.056 8.3584 324.311 6.71126 318.152 6.63965H297.688V41.7666Z" fill="#FFB6B6"/>
<path d="M415.066 51.0586C415.066 59.8672 412.685 66.9033 407.923 72.167C403.16 77.4307 396.769 80.0625 388.748 80.0625C380.763 80.0625 374.353 77.4128 369.519 72.1133C364.721 66.8138 362.322 59.7061 362.322 50.79V44.8818C362.322 39.1169 363.396 34.0322 365.545 29.6279C367.693 25.2236 370.773 21.8219 374.783 19.4229C378.829 16.988 383.448 15.7705 388.64 15.7705C396.411 15.7705 402.695 18.3128 407.493 23.3975C412.327 28.4463 414.851 35.2497 415.066 43.8076V51.0586ZM408.728 44.7744C408.728 37.4697 406.92 31.7585 403.304 27.6406C399.723 23.487 394.835 21.4102 388.64 21.4102C382.517 21.4102 377.648 23.487 374.031 27.6406C370.45 31.7585 368.66 37.5771 368.66 45.0967V51.0586C368.66 58.3275 370.468 64.0566 374.085 68.2461C377.701 72.4355 382.589 74.5303 388.748 74.5303C394.978 74.5303 399.866 72.4535 403.411 68.2998C406.956 64.1462 408.728 58.3275 408.728 50.8438V44.7744Z" fill="#FFB6B6"/>
<path d="M487.273 79.2031H480.881L443.176 26.7275V79.2031H436.785V16.6299H443.176L480.881 69.1055V16.6299H487.273V79.2031Z" fill="#FFB6B6"/>
<path d="M557.654 22.1621H534.773V79.2031H528.381V22.1621H505.554V16.6299H557.654V22.1621Z" fill="#FFB6B6"/>
<path d="M583.723 79.2031H577.278V16.6299H583.723V79.2031Z" fill="#FFB6B6"/>
<path d="M657.272 59.4912C656.521 66.1156 653.96 71.2002 649.592 74.7451C645.259 78.29 639.494 80.0625 632.297 80.0625C624.706 80.0625 618.547 77.5023 613.82 72.3818C609.13 67.2614 606.784 60.2074 606.784 51.2197V44.3447C606.784 38.6872 607.84 33.6921 609.953 29.3594C612.102 24.9909 615.127 21.6429 619.03 19.3154C622.933 16.9521 627.463 15.7705 632.619 15.7705C639.781 15.7705 645.492 17.5788 649.753 21.1953C654.014 24.776 656.521 29.8786 657.272 36.5029H650.827C650.183 31.6331 648.41 27.8913 645.51 25.2773C642.609 22.6276 638.312 21.3027 632.619 21.3027C626.604 21.3027 621.859 23.3438 618.386 27.4258C614.912 31.5078 613.176 37.2012 613.176 44.5059V51.5957C613.176 58.7214 614.877 64.3431 618.278 68.4609C621.716 72.5788 626.389 74.6377 632.297 74.6377C638.062 74.6377 642.412 73.3844 645.349 70.8779C648.321 68.3714 650.147 64.5758 650.827 59.4912H657.272Z" fill="#FFB6B6"/>
<path d="M715.729 49.501H684.738V73.7783H720.456V79.2031H678.346V16.6299H720.241V22.1621H684.738V44.0225H715.729V49.501Z" fill="#FFB6B6"/>
<path d="M746.149 73.7783H779.02V79.2031H739.757V16.6299H746.149V73.7783Z" fill="#FFB6B6"/>
<path d="M803.8 73.7783H836.671V79.2031H797.409V16.6299H803.8V73.7783Z" fill="#FFB6B6"/>
<path d="M862.74 79.2031H856.295V16.6299H862.74V79.2031Z" fill="#FFB6B6"/>
<path d="M61.1562 6.63965H34.3545V79.2031H27.748V6.63965H1V1H61.1562V6.63965Z" stroke="currentColor" stroke-width="2" mask="url(#path-1-outside-1)"/>
<path d="M87.6014 79.2031H81.1561V16.6299H87.6014V79.2031Z" stroke="currentColor" stroke-width="2" mask="url(#path-1-outside-1)"/>
<path d="M163.568 79.2031H157.176L119.471 26.7275V79.2031H113.08V16.6299H119.471L157.176 69.1055V16.6299H163.568V79.2031Z" stroke="currentColor" stroke-width="2" mask="url(#path-1-outside-1)"/>
<path d="M224.442 62.499H194.095L187.435 79.2031H180.775L206.234 16.6299H212.411L237.655 79.2031H231.048L224.442 62.499ZM196.244 57.0205H222.24L209.295 24.3105L196.244 57.0205Z" stroke="currentColor" stroke-width="2" mask="url(#path-1-outside-1)"/>
<path d="M297.688 47.3525V79.2031H291.082V1H317.723C325.851 1 332.26 3.07682 336.951 7.23047C341.678 11.3841 344.041 17.0954 344.041 24.3643C344.041 31.7048 341.767 37.3802 337.22 41.3906C332.708 45.3652 326.155 47.3525 317.562 47.3525H297.688ZM297.688 41.7666H317.723C324.132 41.7666 329.02 40.2448 332.386 37.2012C335.752 34.1576 337.435 29.9144 337.435 24.4717C337.435 19.0648 335.752 14.7679 332.386 11.5811C329.056 8.3584 324.311 6.71126 318.152 6.63965H297.688V41.7666Z" stroke="currentColor" stroke-width="2" mask="url(#path-1-outside-1)"/>
<path d="M415.066 51.0586C415.066 59.8672 412.685 66.9033 407.923 72.167C403.16 77.4307 396.769 80.0625 388.748 80.0625C380.763 80.0625 374.353 77.4128 369.519 72.1133C364.721 66.8138 362.322 59.7061 362.322 50.79V44.8818C362.322 39.1169 363.396 34.0322 365.545 29.6279C367.693 25.2236 370.773 21.8219 374.783 19.4229C378.829 16.988 383.448 15.7705 388.64 15.7705C396.411 15.7705 402.695 18.3128 407.493 23.3975C412.327 28.4463 414.851 35.2497 415.066 43.8076V51.0586ZM408.728 44.7744C408.728 37.4697 406.92 31.7585 403.304 27.6406C399.723 23.487 394.835 21.4102 388.64 21.4102C382.517 21.4102 377.648 23.487 374.031 27.6406C370.45 31.7585 368.66 37.5771 368.66 45.0967V51.0586C368.66 58.3275 370.468 64.0566 374.085 68.2461C377.701 72.4355 382.589 74.5303 388.748 74.5303C394.978 74.5303 399.866 72.4535 403.411 68.2998C406.956 64.1462 408.728 58.3275 408.728 50.8438V44.7744Z" stroke="currentColor" stroke-width="2" mask="url(#path-1-outside-1)"/>
<path d="M487.273 79.2031H480.881L443.176 26.7275V79.2031H436.785V16.6299H443.176L480.881 69.1055V16.6299H487.273V79.2031Z" stroke="currentColor" stroke-width="2" mask="url(#path-1-outside-1)"/>
<path d="M557.654 22.1621H534.773V79.2031H528.381V22.1621H505.554V16.6299H557.654V22.1621Z" stroke="currentColor" stroke-width="2" mask="url(#path-1-outside-1)"/>
<path d="M583.723 79.2031H577.278V16.6299H583.723V79.2031Z" stroke="currentColor" stroke-width="2" mask="url(#path-1-outside-1)"/>
<path d="M657.272 59.4912C656.521 66.1156 653.96 71.2002 649.592 74.7451C645.259 78.29 639.494 80.0625 632.297 80.0625C624.706 80.0625 618.547 77.5023 613.82 72.3818C609.13 67.2614 606.784 60.2074 606.784 51.2197V44.3447C606.784 38.6872 607.84 33.6921 609.953 29.3594C612.102 24.9909 615.127 21.6429 619.03 19.3154C622.933 16.9521 627.463 15.7705 632.619 15.7705C639.781 15.7705 645.492 17.5788 649.753 21.1953C654.014 24.776 656.521 29.8786 657.272 36.5029H650.827C650.183 31.6331 648.41 27.8913 645.51 25.2773C642.609 22.6276 638.312 21.3027 632.619 21.3027C626.604 21.3027 621.859 23.3438 618.386 27.4258C614.912 31.5078 613.176 37.2012 613.176 44.5059V51.5957C613.176 58.7214 614.877 64.3431 618.278 68.4609C621.716 72.5788 626.389 74.6377 632.297 74.6377C638.062 74.6377 642.412 73.3844 645.349 70.8779C648.321 68.3714 650.147 64.5758 650.827 59.4912H657.272Z" stroke="currentColor" stroke-width="2" mask="url(#path-1-outside-1)"/>
<path d="M715.729 49.501H684.738V73.7783H720.456V79.2031H678.346V16.6299H720.241V22.1621H684.738V44.0225H715.729V49.501Z" stroke="currentColor" stroke-width="2" mask="url(#path-1-outside-1)"/>
<path d="M746.149 73.7783H779.02V79.2031H739.757V16.6299H746.149V73.7783Z" stroke="currentColor" stroke-width="2" mask="url(#path-1-outside-1)"/>
<path d="M803.8 73.7783H836.671V79.2031H797.409V16.6299H803.8V73.7783Z" stroke="currentColor" stroke-width="2" mask="url(#path-1-outside-1)"/>
<path d="M862.74 79.2031H856.295V16.6299H862.74V79.2031Z" stroke="currentColor" stroke-width="2" mask="url(#path-1-outside-1)"/>
</svg>




<svg width="455" height="45" viewBox="0 0 455 45" fill="none" xmlns="http://www.w3.org/2000/svg">
<mask id="path-1-outside-1" maskUnits="userSpaceOnUse" x="0" y="0" width="455" height="45" fill="#00000050">
<rect fill="white" width="455" height="45"/>
<path d="M6.38 1L21.62 38.38L36.8 1H41.18L23.42 43.6H19.76L2 1H6.38Z"/>
<path d="M51.0491 43.6V10.78H54.7691V43.6H51.0491Z"/>
<path d="M91.5772 17.32C90.5372 16.28 89.1972 15.44 87.5572 14.8C85.9172 14.16 84.0372 13.84 81.9172 13.84C78.8772 13.84 76.6572 14.36 75.2572 15.4C73.8572 16.4 73.1572 17.8 73.1572 19.6C73.1572 20.52 73.3372 21.28 73.6972 21.88C74.0972 22.48 74.6972 23 75.4972 23.44C76.3372 23.88 77.3572 24.26 78.5572 24.58C79.7972 24.9 81.2572 25.24 82.9372 25.6C84.7772 26 86.4372 26.42 87.9172 26.86C89.4372 27.3 90.7172 27.88 91.7572 28.6C92.8372 29.28 93.6572 30.12 94.2172 31.12C94.7772 32.12 95.0572 33.36 95.0572 34.84C95.0572 36.4 94.7372 37.76 94.0972 38.92C93.4572 40.04 92.5572 40.98 91.3972 41.74C90.2772 42.46 88.9372 43 87.3772 43.36C85.8172 43.72 84.1172 43.9 82.2772 43.9C76.7972 43.9 72.0372 42.34 67.9972 39.22L69.8572 36.1C71.1772 37.38 72.8972 38.46 75.0172 39.34C77.1772 40.18 79.6372 40.6 82.3972 40.6C85.0772 40.6 87.1972 40.16 88.7572 39.28C90.3172 38.4 91.0972 37.06 91.0972 35.26C91.0972 34.3 90.8572 33.5 90.3772 32.86C89.9372 32.18 89.2772 31.6 88.3972 31.12C87.5172 30.6 86.3972 30.16 85.0372 29.8C83.7172 29.44 82.1972 29.08 80.4772 28.72C78.6372 28.32 77.0172 27.9 75.6172 27.46C74.2172 27.02 73.0572 26.48 72.1372 25.84C71.2172 25.16 70.5172 24.36 70.0372 23.44C69.5572 22.48 69.3172 21.32 69.3172 19.96C69.3172 18.44 69.6372 17.1 70.2772 15.94C70.9172 14.74 71.7972 13.74 72.9172 12.94C74.0372 12.14 75.3572 11.54 76.8772 11.14C78.4372 10.74 80.1372 10.54 81.9772 10.54C86.5772 10.54 90.3572 11.8 93.3172 14.32L91.5772 17.32Z"/>
<path d="M122.861 40.42C125.061 40.42 126.881 40.04 128.321 39.28C129.801 38.52 130.981 37.54 131.861 36.34C132.741 35.1 133.341 33.7 133.661 32.14C134.021 30.58 134.201 28.98 134.201 27.34V10.72H137.921V27.34C137.921 29.58 137.641 31.7 137.081 33.7C136.561 35.66 135.701 37.4 134.501 38.92C133.341 40.44 131.801 41.64 129.881 42.52C128.001 43.4 125.681 43.84 122.921 43.84C120.081 43.84 117.701 43.38 115.781 42.46C113.861 41.5 112.321 40.26 111.161 38.74C110.001 37.22 109.161 35.48 108.641 33.52C108.121 31.52 107.861 29.46 107.861 27.34V10.72H111.581V27.34C111.581 29.02 111.761 30.64 112.121 32.2C112.521 33.76 113.141 35.16 113.981 36.4C114.861 37.6 116.021 38.58 117.461 39.34C118.901 40.06 120.701 40.42 122.861 40.42Z"/>
<path d="M148.056 43.6L163.056 10.72H166.176L181.056 43.6H177.096L172.536 33.7H156.636L152.136 43.6H148.056ZM164.616 15.4L157.536 30.4H171.576L164.616 15.4Z"/>
<path d="M193.233 43.6V10.72H196.953V40.24H216.813V43.6H193.233Z"/>
<path d="M260.451 1H263.991L281.691 43.6H277.251L271.731 30.28H252.591L247.131 43.6H242.631L260.451 1ZM270.771 26.98L262.191 5.92L253.491 26.98H270.771Z"/>
<path d="M293.498 43.6V10.72H308.678C310.238 10.72 311.678 11.02 312.998 11.62C314.318 12.22 315.438 13.02 316.358 14.02C317.318 15.02 318.058 16.14 318.578 17.38C319.138 18.62 319.418 19.88 319.418 21.16C319.418 22.32 319.218 23.44 318.818 24.52C318.458 25.6 317.918 26.58 317.198 27.46C316.518 28.3 315.698 29.04 314.738 29.68C313.778 30.28 312.698 30.7 311.498 30.94L320.258 43.6H315.938L307.658 31.66H297.218V43.6H293.498ZM297.218 28.3H308.798C309.798 28.3 310.718 28.12 311.558 27.76C312.398 27.36 313.118 26.84 313.718 26.2C314.318 25.52 314.778 24.76 315.098 23.92C315.418 23.04 315.578 22.12 315.578 21.16C315.578 20.2 315.378 19.3 314.978 18.46C314.618 17.62 314.118 16.88 313.478 16.24C312.838 15.56 312.078 15.04 311.198 14.68C310.358 14.28 309.438 14.08 308.438 14.08H297.218V28.3Z"/>
<path d="M358.747 14.08H346.087V43.6H342.367V14.08H329.587V10.72H358.747V14.08Z"/>
<path d="M371.182 43.6V10.78H374.902V43.6H371.182Z"/>
<path d="M411.71 17.32C410.67 16.28 409.33 15.44 407.69 14.8C406.05 14.16 404.17 13.84 402.05 13.84C399.01 13.84 396.79 14.36 395.39 15.4C393.99 16.4 393.29 17.8 393.29 19.6C393.29 20.52 393.47 21.28 393.83 21.88C394.23 22.48 394.83 23 395.63 23.44C396.47 23.88 397.49 24.26 398.69 24.58C399.93 24.9 401.39 25.24 403.07 25.6C404.91 26 406.57 26.42 408.05 26.86C409.57 27.3 410.85 27.88 411.89 28.6C412.97 29.28 413.79 30.12 414.35 31.12C414.91 32.12 415.19 33.36 415.19 34.84C415.19 36.4 414.87 37.76 414.23 38.92C413.59 40.04 412.69 40.98 411.53 41.74C410.41 42.46 409.07 43 407.51 43.36C405.95 43.72 404.25 43.9 402.41 43.9C396.93 43.9 392.17 42.34 388.13 39.22L389.99 36.1C391.31 37.38 393.03 38.46 395.15 39.34C397.31 40.18 399.77 40.6 402.53 40.6C405.21 40.6 407.33 40.16 408.89 39.28C410.45 38.4 411.23 37.06 411.23 35.26C411.23 34.3 410.99 33.5 410.51 32.86C410.07 32.18 409.41 31.6 408.53 31.12C407.65 30.6 406.53 30.16 405.17 29.8C403.85 29.44 402.33 29.08 400.61 28.72C398.77 28.32 397.15 27.9 395.75 27.46C394.35 27.02 393.19 26.48 392.27 25.84C391.35 25.16 390.65 24.36 390.17 23.44C389.69 22.48 389.45 21.32 389.45 19.96C389.45 18.44 389.77 17.1 390.41 15.94C391.05 14.74 391.93 13.74 393.05 12.94C394.17 12.14 395.49 11.54 397.01 11.14C398.57 10.74 400.27 10.54 402.11 10.54C406.71 10.54 410.49 11.8 413.45 14.32L411.71 17.32Z"/>
<path d="M453.973 14.08H441.313V43.6H437.593V14.08H424.813V10.72H453.973V14.08Z"/>
</mask>
<path d="M6.38 1L21.62 38.38L36.8 1H41.18L23.42 43.6H19.76L2 1H6.38Z" fill="#00000050"/>
<path d="M51.0491 43.6V10.78H54.7691V43.6H51.0491Z" fill="#00000050"/>
<path d="M91.5772 17.32C90.5372 16.28 89.1972 15.44 87.5572 14.8C85.9172 14.16 84.0372 13.84 81.9172 13.84C78.8772 13.84 76.6572 14.36 75.2572 15.4C73.8572 16.4 73.1572 17.8 73.1572 19.6C73.1572 20.52 73.3372 21.28 73.6972 21.88C74.0972 22.48 74.6972 23 75.4972 23.44C76.3372 23.88 77.3572 24.26 78.5572 24.58C79.7972 24.9 81.2572 25.24 82.9372 25.6C84.7772 26 86.4372 26.42 87.9172 26.86C89.4372 27.3 90.7172 27.88 91.7572 28.6C92.8372 29.28 93.6572 30.12 94.2172 31.12C94.7772 32.12 95.0572 33.36 95.0572 34.84C95.0572 36.4 94.7372 37.76 94.0972 38.92C93.4572 40.04 92.5572 40.98 91.3972 41.74C90.2772 42.46 88.9372 43 87.3772 43.36C85.8172 43.72 84.1172 43.9 82.2772 43.9C76.7972 43.9 72.0372 42.34 67.9972 39.22L69.8572 36.1C71.1772 37.38 72.8972 38.46 75.0172 39.34C77.1772 40.18 79.6372 40.6 82.3972 40.6C85.0772 40.6 87.1972 40.16 88.7572 39.28C90.3172 38.4 91.0972 37.06 91.0972 35.26C91.0972 34.3 90.8572 33.5 90.3772 32.86C89.9372 32.18 89.2772 31.6 88.3972 31.12C87.5172 30.6 86.3972 30.16 85.0372 29.8C83.7172 29.44 82.1972 29.08 80.4772 28.72C78.6372 28.32 77.0172 27.9 75.6172 27.46C74.2172 27.02 73.0572 26.48 72.1372 25.84C71.2172 25.16 70.5172 24.36 70.0372 23.44C69.5572 22.48 69.3172 21.32 69.3172 19.96C69.3172 18.44 69.6372 17.1 70.2772 15.94C70.9172 14.74 71.7972 13.74 72.9172 12.94C74.0372 12.14 75.3572 11.54 76.8772 11.14C78.4372 10.74 80.1372 10.54 81.9772 10.54C86.5772 10.54 90.3572 11.8 93.3172 14.32L91.5772 17.32Z" fill="#00000050"/>
<path d="M122.861 40.42C125.061 40.42 126.881 40.04 128.321 39.28C129.801 38.52 130.981 37.54 131.861 36.34C132.741 35.1 133.341 33.7 133.661 32.14C134.021 30.58 134.201 28.98 134.201 27.34V10.72H137.921V27.34C137.921 29.58 137.641 31.7 137.081 33.7C136.561 35.66 135.701 37.4 134.501 38.92C133.341 40.44 131.801 41.64 129.881 42.52C128.001 43.4 125.681 43.84 122.921 43.84C120.081 43.84 117.701 43.38 115.781 42.46C113.861 41.5 112.321 40.26 111.161 38.74C110.001 37.22 109.161 35.48 108.641 33.52C108.121 31.52 107.861 29.46 107.861 27.34V10.72H111.581V27.34C111.581 29.02 111.761 30.64 112.121 32.2C112.521 33.76 113.141 35.16 113.981 36.4C114.861 37.6 116.021 38.58 117.461 39.34C118.901 40.06 120.701 40.42 122.861 40.42Z" fill="#00000050"/>
<path d="M148.056 43.6L163.056 10.72H166.176L181.056 43.6H177.096L172.536 33.7H156.636L152.136 43.6H148.056ZM164.616 15.4L157.536 30.4H171.576L164.616 15.4Z" fill="#00000050"/>
<path d="M193.233 43.6V10.72H196.953V40.24H216.813V43.6H193.233Z" fill="#00000050"/>
<path d="M260.451 1H263.991L281.691 43.6H277.251L271.731 30.28H252.591L247.131 43.6H242.631L260.451 1ZM270.771 26.98L262.191 5.92L253.491 26.98H270.771Z" fill="#00000050"/>
<path d="M293.498 43.6V10.72H308.678C310.238 10.72 311.678 11.02 312.998 11.62C314.318 12.22 315.438 13.02 316.358 14.02C317.318 15.02 318.058 16.14 318.578 17.38C319.138 18.62 319.418 19.88 319.418 21.16C319.418 22.32 319.218 23.44 318.818 24.52C318.458 25.6 317.918 26.58 317.198 27.46C316.518 28.3 315.698 29.04 314.738 29.68C313.778 30.28 312.698 30.7 311.498 30.94L320.258 43.6H315.938L307.658 31.66H297.218V43.6H293.498ZM297.218 28.3H308.798C309.798 28.3 310.718 28.12 311.558 27.76C312.398 27.36 313.118 26.84 313.718 26.2C314.318 25.52 314.778 24.76 315.098 23.92C315.418 23.04 315.578 22.12 315.578 21.16C315.578 20.2 315.378 19.3 314.978 18.46C314.618 17.62 314.118 16.88 313.478 16.24C312.838 15.56 312.078 15.04 311.198 14.68C310.358 14.28 309.438 14.08 308.438 14.08H297.218V28.3Z" fill="#00000050"/>
<path d="M358.747 14.08H346.087V43.6H342.367V14.08H329.587V10.72H358.747V14.08Z" fill="#00000050"/>
<path d="M371.182 43.6V10.78H374.902V43.6H371.182Z" fill="#00000050"/>
<path d="M411.71 17.32C410.67 16.28 409.33 15.44 407.69 14.8C406.05 14.16 404.17 13.84 402.05 13.84C399.01 13.84 396.79 14.36 395.39 15.4C393.99 16.4 393.29 17.8 393.29 19.6C393.29 20.52 393.47 21.28 393.83 21.88C394.23 22.48 394.83 23 395.63 23.44C396.47 23.88 397.49 24.26 398.69 24.58C399.93 24.9 401.39 25.24 403.07 25.6C404.91 26 406.57 26.42 408.05 26.86C409.57 27.3 410.85 27.88 411.89 28.6C412.97 29.28 413.79 30.12 414.35 31.12C414.91 32.12 415.19 33.36 415.19 34.84C415.19 36.4 414.87 37.76 414.23 38.92C413.59 40.04 412.69 40.98 411.53 41.74C410.41 42.46 409.07 43 407.51 43.36C405.95 43.72 404.25 43.9 402.41 43.9C396.93 43.9 392.17 42.34 388.13 39.22L389.99 36.1C391.31 37.38 393.03 38.46 395.15 39.34C397.31 40.18 399.77 40.6 402.53 40.6C405.21 40.6 407.33 40.16 408.89 39.28C410.45 38.4 411.23 37.06 411.23 35.26C411.23 34.3 410.99 33.5 410.51 32.86C410.07 32.18 409.41 31.6 408.53 31.12C407.65 30.6 406.53 30.16 405.17 29.8C403.85 29.44 402.33 29.08 400.61 28.72C398.77 28.32 397.15 27.9 395.75 27.46C394.35 27.02 393.19 26.48 392.27 25.84C391.35 25.16 390.65 24.36 390.17 23.44C389.69 22.48 389.45 21.32 389.45 19.96C389.45 18.44 389.77 17.1 390.41 15.94C391.05 14.74 391.93 13.74 393.05 12.94C394.17 12.14 395.49 11.54 397.01 11.14C398.57 10.74 400.27 10.54 402.11 10.54C406.71 10.54 410.49 11.8 413.45 14.32L411.71 17.32Z" fill="#00000050"/>
<path d="M453.973 14.08H441.313V43.6H437.593V14.08H424.813V10.72H453.973V14.08Z" fill="#00000050"/>
<path d="M6.38 1L21.62 38.38L36.8 1H41.18L23.42 43.6H19.76L2 1H6.38Z" stroke="currentColor" stroke-width="1" mask="url(#path-1-outside-1)"/>
<path d="M51.0491 43.6V10.78H54.7691V43.6H51.0491Z" stroke="currentColor" stroke-width="1" mask="url(#path-1-outside-1)"/>
<path d="M91.5772 17.32C90.5372 16.28 89.1972 15.44 87.5572 14.8C85.9172 14.16 84.0372 13.84 81.9172 13.84C78.8772 13.84 76.6572 14.36 75.2572 15.4C73.8572 16.4 73.1572 17.8 73.1572 19.6C73.1572 20.52 73.3372 21.28 73.6972 21.88C74.0972 22.48 74.6972 23 75.4972 23.44C76.3372 23.88 77.3572 24.26 78.5572 24.58C79.7972 24.9 81.2572 25.24 82.9372 25.6C84.7772 26 86.4372 26.42 87.9172 26.86C89.4372 27.3 90.7172 27.88 91.7572 28.6C92.8372 29.28 93.6572 30.12 94.2172 31.12C94.7772 32.12 95.0572 33.36 95.0572 34.84C95.0572 36.4 94.7372 37.76 94.0972 38.92C93.4572 40.04 92.5572 40.98 91.3972 41.74C90.2772 42.46 88.9372 43 87.3772 43.36C85.8172 43.72 84.1172 43.9 82.2772 43.9C76.7972 43.9 72.0372 42.34 67.9972 39.22L69.8572 36.1C71.1772 37.38 72.8972 38.46 75.0172 39.34C77.1772 40.18 79.6372 40.6 82.3972 40.6C85.0772 40.6 87.1972 40.16 88.7572 39.28C90.3172 38.4 91.0972 37.06 91.0972 35.26C91.0972 34.3 90.8572 33.5 90.3772 32.86C89.9372 32.18 89.2772 31.6 88.3972 31.12C87.5172 30.6 86.3972 30.16 85.0372 29.8C83.7172 29.44 82.1972 29.08 80.4772 28.72C78.6372 28.32 77.0172 27.9 75.6172 27.46C74.2172 27.02 73.0572 26.48 72.1372 25.84C71.2172 25.16 70.5172 24.36 70.0372 23.44C69.5572 22.48 69.3172 21.32 69.3172 19.96C69.3172 18.44 69.6372 17.1 70.2772 15.94C70.9172 14.74 71.7972 13.74 72.9172 12.94C74.0372 12.14 75.3572 11.54 76.8772 11.14C78.4372 10.74 80.1372 10.54 81.9772 10.54C86.5772 10.54 90.3572 11.8 93.3172 14.32L91.5772 17.32Z" stroke="currentColor" stroke-width="1" mask="url(#path-1-outside-1)"/>
<path d="M122.861 40.42C125.061 40.42 126.881 40.04 128.321 39.28C129.801 38.52 130.981 37.54 131.861 36.34C132.741 35.1 133.341 33.7 133.661 32.14C134.021 30.58 134.201 28.98 134.201 27.34V10.72H137.921V27.34C137.921 29.58 137.641 31.7 137.081 33.7C136.561 35.66 135.701 37.4 134.501 38.92C133.341 40.44 131.801 41.64 129.881 42.52C128.001 43.4 125.681 43.84 122.921 43.84C120.081 43.84 117.701 43.38 115.781 42.46C113.861 41.5 112.321 40.26 111.161 38.74C110.001 37.22 109.161 35.48 108.641 33.52C108.121 31.52 107.861 29.46 107.861 27.34V10.72H111.581V27.34C111.581 29.02 111.761 30.64 112.121 32.2C112.521 33.76 113.141 35.16 113.981 36.4C114.861 37.6 116.021 38.58 117.461 39.34C118.901 40.06 120.701 40.42 122.861 40.42Z" stroke="currentColor" stroke-width="1" mask="url(#path-1-outside-1)"/>
<path d="M148.056 43.6L163.056 10.72H166.176L181.056 43.6H177.096L172.536 33.7H156.636L152.136 43.6H148.056ZM164.616 15.4L157.536 30.4H171.576L164.616 15.4Z" stroke="currentColor" stroke-width="1" mask="url(#path-1-outside-1)"/>
<path d="M193.233 43.6V10.72H196.953V40.24H216.813V43.6H193.233Z" stroke="currentColor" stroke-width="1" mask="url(#path-1-outside-1)"/>
<path d="M260.451 1H263.991L281.691 43.6H277.251L271.731 30.28H252.591L247.131 43.6H242.631L260.451 1ZM270.771 26.98L262.191 5.92L253.491 26.98H270.771Z" stroke="currentColor" stroke-width="1" mask="url(#path-1-outside-1)"/>
<path d="M293.498 43.6V10.72H308.678C310.238 10.72 311.678 11.02 312.998 11.62C314.318 12.22 315.438 13.02 316.358 14.02C317.318 15.02 318.058 16.14 318.578 17.38C319.138 18.62 319.418 19.88 319.418 21.16C319.418 22.32 319.218 23.44 318.818 24.52C318.458 25.6 317.918 26.58 317.198 27.46C316.518 28.3 315.698 29.04 314.738 29.68C313.778 30.28 312.698 30.7 311.498 30.94L320.258 43.6H315.938L307.658 31.66H297.218V43.6H293.498ZM297.218 28.3H308.798C309.798 28.3 310.718 28.12 311.558 27.76C312.398 27.36 313.118 26.84 313.718 26.2C314.318 25.52 314.778 24.76 315.098 23.92C315.418 23.04 315.578 22.12 315.578 21.16C315.578 20.2 315.378 19.3 314.978 18.46C314.618 17.62 314.118 16.88 313.478 16.24C312.838 15.56 312.078 15.04 311.198 14.68C310.358 14.28 309.438 14.08 308.438 14.08H297.218V28.3Z" stroke="currentColor" stroke-width="1" mask="url(#path-1-outside-1)"/>
<path d="M358.747 14.08H346.087V43.6H342.367V14.08H329.587V10.72H358.747V14.08Z" stroke="currentColor" stroke-width="1" mask="url(#path-1-outside-1)"/>
<path d="M371.182 43.6V10.78H374.902V43.6H371.182Z" stroke="currentColor" stroke-width="1" mask="url(#path-1-outside-1)"/>
<path d="M411.71 17.32C410.67 16.28 409.33 15.44 407.69 14.8C406.05 14.16 404.17 13.84 402.05 13.84C399.01 13.84 396.79 14.36 395.39 15.4C393.99 16.4 393.29 17.8 393.29 19.6C393.29 20.52 393.47 21.28 393.83 21.88C394.23 22.48 394.83 23 395.63 23.44C396.47 23.88 397.49 24.26 398.69 24.58C399.93 24.9 401.39 25.24 403.07 25.6C404.91 26 406.57 26.42 408.05 26.86C409.57 27.3 410.85 27.88 411.89 28.6C412.97 29.28 413.79 30.12 414.35 31.12C414.91 32.12 415.19 33.36 415.19 34.84C415.19 36.4 414.87 37.76 414.23 38.92C413.59 40.04 412.69 40.98 411.53 41.74C410.41 42.46 409.07 43 407.51 43.36C405.95 43.72 404.25 43.9 402.41 43.9C396.93 43.9 392.17 42.34 388.13 39.22L389.99 36.1C391.31 37.38 393.03 38.46 395.15 39.34C397.31 40.18 399.77 40.6 402.53 40.6C405.21 40.6 407.33 40.16 408.89 39.28C410.45 38.4 411.23 37.06 411.23 35.26C411.23 34.3 410.99 33.5 410.51 32.86C410.07 32.18 409.41 31.6 408.53 31.12C407.65 30.6 406.53 30.16 405.17 29.8C403.85 29.44 402.33 29.08 400.61 28.72C398.77 28.32 397.15 27.9 395.75 27.46C394.35 27.02 393.19 26.48 392.27 25.84C391.35 25.16 390.65 24.36 390.17 23.44C389.69 22.48 389.45 21.32 389.45 19.96C389.45 18.44 389.77 17.1 390.41 15.94C391.05 14.74 391.93 13.74 393.05 12.94C394.17 12.14 395.49 11.54 397.01 11.14C398.57 10.74 400.27 10.54 402.11 10.54C406.71 10.54 410.49 11.8 413.45 14.32L411.71 17.32Z" stroke="currentColor" stroke-width="1" mask="url(#path-1-outside-1)"/>
<path d="M453.973 14.08H441.313V43.6H437.593V14.08H424.813V10.72H453.973V14.08Z" stroke="currentColor" stroke-width="1" mask="url(#path-1-outside-1)"/>
</svg>
